HIERARCHY
ROOT Hips
{
	OFFSET 39.054501 -3.709956 98.889000
	CHANNELS 6 Xposition Yposition Zposition Xrotation Yrotation Zrotation
	JOINT spine
	{
		OFFSET 0.000000 -0.477353 8.301033
		CHANNELS 3 Xrotation Yrotation Zrotation
		JOINT spine1
		{
			OFFSET 0.000000 -0.000001 10.456497
			CHANNELS 3 Xrotation Yrotation Zrotation
			JOINT spine2
			{
				OFFSET 0.000000 -0.000002 10.019203
				CHANNELS 3 Xrotation Yrotation Zrotation
				JOINT Neck
				{
					OFFSET 0.000000 -1.226414 25.723503
					CHANNELS 3 Xrotation Yrotation Zrotation
					JOINT Head
					{
						OFFSET 0.000000 -0.000001 7.771744
						CHANNELS 3 Xrotation Yrotation Zrotation
						End Site
						{
							OFFSET 0.000000 6.203937 18.811996
						}
					}
				}
				JOINT RightShoulder
				{
					OFFSET -4.218800 0.587437 10.820000
					CHANNELS 3 Xrotation Yrotation Zrotation
					JOINT RightArm
					{
						OFFSET 0.000000 -0.000002 14.191406
						CHANNELS 3 Xrotation Yrotation Zrotation
						JOINT RightArmRoll
						{
							OFFSET 0.000000 -0.000001 7.164078
							CHANNELS 3 Xrotation Yrotation Zrotation
							JOINT RightForeArm
							{
								OFFSET 0.000000 -0.000003 20.866501
								CHANNELS 3 Xrotation Yrotation Zrotation
								JOINT RightForeArmRoll
								{
									OFFSET 0.000000 -0.000001 8.039215
									CHANNELS 3 Xrotation Yrotation Zrotation
									JOINT RightHand
									{
										OFFSET 0.000000 -0.000003 16.132996
										CHANNELS 3 Xrotation Yrotation Zrotation
										End Site
										{
											OFFSET 0.000000 0.000000 0.100006
										}
									}
								}
							}
						}
					}
				}
				JOINT LeftShoulder
				{
					OFFSET 4.218800 0.587437 10.820000
					CHANNELS 3 Xrotation Yrotation Zrotation
					JOINT LeftArm
					{
						OFFSET 0.000000 -0.000002 14.191406
						CHANNELS 3 Xrotation Yrotation Zrotation
						JOINT LeftArmRoll
						{
							OFFSET 0.000000 -0.000001 7.164078
							CHANNELS 3 Xrotation Yrotation Zrotation
							JOINT LeftForeArm
							{
								OFFSET 0.000000 -0.000003 20.866501
								CHANNELS 3 Xrotation Yrotation Zrotation
								JOINT LeftForeArmRoll
								{
									OFFSET 0.000000 -0.000001 8.039215
									CHANNELS 3 Xrotation Yrotation Zrotation
									JOINT LeftHand
									{
										OFFSET 0.000000 -0.000003 16.132996
										CHANNELS 3 Xrotation Yrotation Zrotation
										End Site
										{
											OFFSET 0.000000 0.000000 0.100006
										}
									}
								}
							}
						}
					}
				}
			}
		}
	}
	JOINT RightUpLeg
	{
		OFFSET -7.357731 1.131810 -1.349213
		CHANNELS 3 Xrotation Yrotation Zrotation
		JOINT RightUpLegRoll
		{
			OFFSET 0.000000 -0.000003 18.916801
			CHANNELS 3 Xrotation Yrotation Zrotation
			JOINT RightLeg
			{
				OFFSET 0.000000 0.000004 -23.425598
				CHANNELS 3 Xrotation Yrotation Zrotation
				JOINT RightLegRoll
				{
					OFFSET 0.000000 -0.000004 23.502304
					CHANNELS 3 Xrotation Yrotation Zrotation
					JOINT RightFoot
					{
						OFFSET 0.000000 -0.000003 19.561707
						CHANNELS 3 Xrotation Yrotation Zrotation
						JOINT RightToeBase
						{
							OFFSET 0.000000 -0.000003 16.352600
							CHANNELS 3 Xrotation Yrotation Zrotation
							End Site
							{
								OFFSET 0.006931 0.912836 7.919434
							}
						}
					}
				}
			}
		}
	}
	JOINT LeftUpLeg
	{
		OFFSET 7.357731 1.131810 -1.349213
		CHANNELS 3 Xrotation Yrotation Zrotation
		JOINT LeftUpLegRoll
		{
			OFFSET 0.000000 -0.000003 18.916901
			CHANNELS 3 Xrotation Yrotation Zrotation
			JOINT LeftLeg
			{
				OFFSET 0.000000 -0.000004 23.425499
				CHANNELS 3 Xrotation Yrotation Zrotation
				JOINT LeftLegRoll
				{
					OFFSET 0.000000 -0.000004 23.719498
					CHANNELS 3 Xrotation Yrotation Zrotation
					JOINT LeftFoot
					{
						OFFSET 0.000000 -0.000003 19.344406
						CHANNELS 3 Xrotation Yrotation Zrotation
						JOINT LeftToeBase
						{
							OFFSET 0.000000 -0.000003 16.352600
							CHANNELS 3 Xrotation Yrotation Zrotation
							End Site
							{
								OFFSET -0.031063 0.912835 7.919434
							}
						}
					}
				}
			}
		}
	}
}
MOTION
Frames: 4
Frame Time: 0.041667
38.648296 -3.885189 98.808403 -2.274947 -0.750315 1.187314 -1.504472 -0.015071 0.162481 1.003571 -0.038340 0.344381 2.648630 -0.034202 0.344815 23.250114 0.521377 -1.321068 -10.991971 0.199784 -1.288445 -4.536526 -73.840601 -6.682371 -70.414244 -108.786281 -38.581304 0.000004 0.000002 -0.000014 0.035991 -4.971541 0.389813 0.000002 0.000030 -3.041950 -5.000199 -7.999430 0.000072 7.718491 67.639623 -7.548794 -39.244822 102.936572 18.999539 0.000001 -0.000006 -0.000004 2.892833 9.170190 0.338967 0.000002 -0.000006 3.000010 -5.000240 7.998875 -0.000155 1.466476 -175.994318 1.051352 -179.999991 0.000005 -1.079001 175.607947 -3.773917 -0.542658 0.000001 -0.000002 0.047573 69.007587 6.884656 2.159107 25.456959 -7.355615 -0.000001 1.396470 176.167135 1.384703 -0.000005 -0.000005 -1.150190 -7.835916 2.987581 0.873137 -0.000000 -0.000004 -0.089395 68.500158 -6.918921 -2.084829 25.456950 7.355614 -0.000011 
38.647797 -3.883486 98.808388 -2.272836 -0.749000 1.193993 -1.506329 -0.014567 0.163034 0.999244 -0.037607 0.343127 2.644300 -0.033472 0.343555 23.281236 0.525213 -1.324794 -11.003061 0.191980 -1.291742 -4.516117 -73.839631 -6.660139 -70.531668 -108.816416 -38.661797 0.000003 0.000002 -0.000014 0.035903 -4.922609 0.392366 0.000002 0.000030 -3.041949 -5.000196 -7.999430 0.000072 7.697503 67.638714 -7.525576 -39.414990 102.951824 19.194980 0.000002 -0.000006 -0.000003 2.929590 9.176998 0.336605 0.000002 -0.000007 3.000009 -5.000240 7.998875 -0.000155 1.461984 -175.990301 1.058892 -179.999991 0.000005 -1.079001 175.604942 -3.783871 -0.542623 0.000002 -0.000002 0.047573 69.006849 6.884647 2.159052 25.456957 -7.355616 -0.000000 1.388088 176.164116 1.381651 -0.000005 -0.000004 -1.150190 -7.842427 2.990646 0.874122 0.000000 -0.000004 -0.089395 68.502371 -6.918891 -2.084787 25.456950 7.355614 -0.000010 
38.650898 -3.882440 98.805984 -2.270613 -0.747547 1.200420 -1.508209 -0.014059 0.163609 0.994860 -0.036893 0.341818 2.639920 -0.032763 0.342238 23.312049 0.528763 -1.328378 -11.013456 0.184403 -1.294911 -4.495112 -73.838969 -6.637281 -70.650944 -108.847220 -38.744979 0.000003 0.000001 -0.000017 0.035829 -4.874349 0.394685 0.000001 0.000030 -3.041949 -5.000200 -7.999431 0.000072 7.675298 67.637560 -7.501038 -39.582889 102.968093 19.387979 0.000001 -0.000005 -0.000002 2.965776 9.183585 0.334280 0.000002 -0.000005 3.000013 -5.000241 7.998874 -0.000156 1.457269 -175.987296 1.066611 -179.999991 0.000005 -1.079001 175.601869 -3.794822 -0.542670 0.000002 -0.000002 0.047573 69.006105 6.884644 2.159096 25.456957 -7.355615 -0.000001 1.379566 176.160114 1.378355 -0.000005 -0.000004 -1.150190 -7.849130 2.993896 0.875150 0.000000 -0.000004 -0.089392 68.504482 -6.918930 -2.084663 25.456950 7.355613 -0.000011 
38.651897 -3.855919 98.804298 -2.268312 -0.745995 1.206662 -1.510120 -0.013547 0.164200 0.990437 -0.036194 0.340469 2.635490 -0.032067 0.340881 23.342569 0.532111 -1.331848 -11.023253 0.176986 -1.297993 -4.473599 -73.838423 -6.613875 -70.771019 -108.878598 -38.829584 0.000003 0.000000 -0.000017 0.035769 -4.826558 0.396847 0.000003 0.000028 -3.041954 -5.000198 -7.999430 0.000074 7.652188 67.636140 -7.475516 -39.750898 102.984588 19.581073 0.000002 -0.000004 -0.000004 3.001581 9.190031 0.331977 0.000002 -0.000006 3.000011 -5.000241 7.998875 -0.000157 1.452405 -175.983280 1.074497 -179.999991 0.000005 -1.079001 175.598768 -3.805783 -0.542708 0.000001 -0.000002 0.047573 69.005360 6.884636 2.159140 25.456960 -7.355614 -0.000001 1.370950 176.157095 1.374931 -0.000005 -0.000005 -1.150190 -7.855964 2.997266 0.876206 0.000000 -0.000004 -0.089389 68.506702 -6.918939 -2.084625 25.456952 7.355614 -0.000011 
